<svg xmlns="http://www.w3.org/2000/svg" viewBox="0 0 1280 720" width="1280" height="720" role="img" aria-label="Batua - AI-Powered Personal Finance" xmlns:c2pa="http://c2pa.org/manifest"><metadata><c2pa:manifest>AAAWgmp1bWIAAAAeanVtZGMycGEAEQAQgAAAqgA4m3EDYzJwYQAAABZcanVtYgAAAEdqdW1kYzJtYQARABCAAACqADibcQN1cm46YzJwYTpiZGFiNWMzMS1lNTdhLTQ2NTEtODI5Yi0zMjFmNzg2YTE4ZWQAAAADl2p1bWIAAAApanVtZGMyYXMAEQAQgAAAqgA4m3EDYzJwYS5hc3NlcnRpb25zAAAAALxqdW1iAAAARGp1bWRjYm9yABEAEIAAAKoAOJtxE2MycGEuaW5ncmVkaWVudC52MwAAAAAYYzJzaEiNelseWFeoEqtC/BFGl7UAAABwY2JvcqNpZGM6Zm9ybWF0bWltYWdlL3N2Zyt4bWxqaW5zdGFuY2VJRHgseG1wOmlpZDo4YzEzMmE2Mi1kMDM3LTQwZmItYjBkOC03YTgxNjRkOWE2NWNscmVsYXRpb25zaGlwaHBhcmVudE9mAAAB4mp1bWIAAABBanVtZGNib3IAEQAQgAAAqgA4m3ETYzJwYS5hY3Rpb25zLnYyAAAAABhjMnNom79Ju+wZR05SvQI9jJ/0WwAAAZljYm9yomdhY3Rpb25zgqJmYWN0aW9ua2MycGEub3BlbmVkanBhcmFtZXRlcnOha2luZ3JlZGllbnRzgaJjdXJseC1zZWxmI2p1bWJmPWMycGEuYXNzZXJ0aW9ucy9jMnBhLmluZ3JlZGllbnQudjNkaGFzaFggJKwPG8ZOwyQrnr3odm6XM0+Rhe7mZU6I0vzWoR2pAzCkZmFjdGlvbngdY29tLmFudGhyb3BpYy5jbGF1ZGUucHJvdmlkZWRqcGFyYW1ldGVyc6F4H2NvbS5hbnRocm9waWMub3JpZ2luLWNvbmZpZGVuY2VndW5rbm93bmtkZXNjcmlwdGlvbnhmQ2xhdWRlIHByb3ZpZGVkIHRoaXMgZmlsZSBhdCB0aGUgcmVxdWVzdCBvZiBhIHVzZXIgYW5kIG1heSBoYXZlIGNyZWF0ZWQgb3IgbW9kaWZpZWQgdGhlIGZpbGUgY29udGVudHMubXNvZnR3YXJlQWdlbnShZG5hbWVmQ2xhdWRlcmFsbEFjdGlvbnNJbmNsdWRlZPUAAADIanVtYgAAAEBqdW1kY2JvcgARABCAAACqADibcRNjMnBhLmhhc2guZGF0YQAAAAAYYzJzaP4QqrR2JxOoU5qfQp5UinoAAACAY2JvcqVjYWxnZnNoYTI1NmNwYWRNAAAAAAAAAAAAAAAAAGRoYXNoWCBHUd5YvC03S5YvplC2oYjWNqL0NUFLr1Hal5mZFKpr+2RuYW1lbmp1bWJmIG1hbmlmZXN0amV4Y2x1c2lvbnOBomVzdGFydBjUZmxlbmd0aBkeBAAAAj5qdW1iAAAAJ2p1bWRjMmNsABEAEIAAAKoAOJtxA2MycGEuY2xhaW0udjIAAAACD2Nib3KlY2FsZ2ZzaGEyNTZpc2lnbmF0dXJleE1zZWxmI2p1bWJmPS9jMnBhL3VybjpjMnBhOmJkYWI1YzMxLWU1N2EtNDY1MS04MjliLTMyMWY3ODZhMThlZC9jMnBhLnNpZ25hdHVyZWppbnN0YW5jZUlEeCx4bXA6aWlkOjQ0MDYzZDJiLWQ3NDYtNDk5Ny04NDg4LTZmMzdmZmYwMzNjNHJjcmVhdGVkX2Fzc2VydGlvbnODomN1cmx4LXNlbGYjanVtYmY9YzJwYS5hc3NlcnRpb25zL2MycGEuaW5ncmVkaWVudC52M2RoYXNoWCAkrA8bxk7DJCueveh2bpczT5GF7uZlTojS/NahHakDMKJjdXJseCpzZWxmI2p1bWJmPWMycGEuYXNzZXJ0aW9ucy9jMnBhLmFjdGlvbnMudjJkaGFzaFggamfSnIpYSqWnMUvqJjXZ4t8E6rPgaXwHkS1RjA6TXv+iY3VybHgpc2VsZiNqdW1iZj1jMnBhLmFzc2VydGlvbnMvYzJwYS5oYXNoLmRhdGFkaGFzaFggaAootFNJK7lADyWj+vpJKEKEYYIQNUvGzy/ztOajKbB0Y2xhaW1fZ2VuZXJhdG9yX2luZm+jZG5hbWVvQW50aHJvcGljIEZpbGVzZ3ZlcnNpb25lMS4wLjBrc3BlY1ZlcnNpb25lMi40LjAAABA4anVtYgAAAChqdW1kYzJjcwARABCAAACqADibcQNjMnBhLnNpZ25hdHVyZQAAABAIY2JvctKEWQISogEmGCFZAgowggIGMIIBjaADAgECAhRA5aAK7sI50L64g/oGQgU9Z1UTADAKBggqhkjOPQQDAzBJMRcwFQYDVQQKEw5BbnRocm9waWMsIFBCQzEuMCwGA1UEAxMlQW50aHJvcGljIENvbnRlbnQgQ3JlZGVudGlhbHMgUm9vdCBDQTAeFw0yNjA4MDcxODQzNTZaFw0yODA4MDYxOTQzNTZaMEQxFzAVBgNVBAoTDkFudGhyb3BpYywgUEJDMSkwJwYDVQQDEyBBbnRocm9waWMgQ2xhdWRlIENvbnRlbnQgU2lnbmluZzBZMBMGByqGSM49AgEGCCqGSM49AwEHA0IABJh6CmvLUBgFFNU0vUKlOVtE6djd17L5SuwX0LemFisBM3dkd/3cyjxFA3Qo5S46fX0/ihY0VZ7mfb9KF703t5OjWDBWMA4GA1UdDwEB/wQEAwIHgDAVBgNVHSUEDjAMBgorBgEEAYPoXgIBMAwGA1UdEwEB/wQCMAAwHwYDVR0jBBgwFoAUzlHiBIFOZFsj+OPEz5o+nMHXXMIwCgYIKoZIzj0EAwMDZwAwZAIwMXMdFJ4BetLLVY7ORuE9noqbbAZOZn/aArXyTwFAZfKrPzxF2vPoJNf1+UCdg1XGAjBwX1zd9WGqYkqmL5SFqw1QySjr1zJfpJM9+1rdDwSPLMOPOjKuiXjoU/pUUeG9RwmhY3BhZFkNngAAAAAAAAAAAAAAAAAAAAAAAAAAAAAAAAAAAAAAAAAAAAAAAAAAAAAAAAAAAAAAAAAAAAAAAAAAAAAAAAAAAAAAAAAAAAAAAAAAAAAAAAAAAAAAAAAAAAAAAAAAAAAAAAAAAAAAAAAAAAAAAAAAAAAAAAAAAAAAAAAAAAAAAAAAAAAAAAAAAAAAAAAAAAAAAAAAAAAAAAAAAAAAAAAAAAAAAAAAAAAAAAAAAAAAAAAAAAAAAAAAAAAAAAAAAAAAAAAAAAAAAAAAAAAAAAAAAAAAAAAAAAAAAAAAAAAAAAAAAAAAAAAAAAAAAAAAAAAAAAAAAAAAAAAAAAAAAAAAAAAAAAAAAAAAAAAAAAAAAAAAAAAAAAAAAAAAAAAAAAAAAAAAAAAAAAAAAAAAAAAAAAAAAAAAAAAAAAAAAAAAAAAAAAAAAAAAAAAAAAAAAAAAAAAAAAAAAAAAAAAAAAAAAAAAAAAAAAAAAAAAAAAAAAAAAAAAAAAAAAAAAAAAAAAAAAAAAAAAAAAAAAAAAAAAAAAAAAAAAAAAAAAAAAAAAAAAAAAAAAAAAAAAAAAAAAAAAAAAAAAAAAAAAAAAAAAAAAAAAAAAAAAAAAAAAAAAAAAAAAAAAAAAAAAAAAAAAAAAAAAAAAAAAAAAAAAAAAAAAAAAAAAAAAAAAAAAAAAAAAAAAAAAAAAAAAAAAAAAAAAAAAAAAAAAAAAAAAAAAAAAAAAAAAAAAAAAAAAAAAAAAAAAAAAAAAAAAAAAAAAAAAAAAAAAAAAAAAAAAAAAAAAAAAAAAAAAAAAAAAAAAAAAAAAAAAAAAAAAAAAAAAAAAAAAAAAAAAAAAAAAAAAAAAAAAAAAAAAAAAAAAAAAAAAAAAAAAAAAAAAAAAAAAAAAAAAAAAAAAAAAAAAAAAAAAAAAAAAAAAAAAAAAAAAAAAAAAAAAAAAAAAAAAAAAAAAAAAAAAAAAAAAAAAAAAAAAAAAAAAAAAAAAAAAAAAAAAAAAAAAAAAAAAAAAAAAAAAAAAAAAAAAAAAAAAAAAAAAAAAAAAAAAAAAAAAAAAAAAAAAAAAAAAAAAAAAAAAAAAAAAAAAAAAAAAAAAAAAAAAAAAAAAAAAAAAAAAAAAAAAAAAAAAAAAAAAAAAAAAAAAAAAAAAAAAAAAAAAAAAAAAAAAAAAAAAAAAAAAAAAAAAAAAAAAAAAAAAAAAAAAAAAAAAAAAAAAAAAAAAAAAAAAAAAAAAAAAAAAAAAAAAAAAAAAAAAAAAAAAAAAAAAAAAAAAAAAAAAAAAAAAAAAAAAAAAAAAAAAAAAAAAAAAAAAAAAAAAAAAAAAAAAAAAAAAAAAAAAAAAAAAAAAAAAAAAAAAAAAAAAAAAAAAAAAAAAAAAAAAAAAAAAAAAAAAAAAAAAAAAAAAAAAAAAAAAAAAAAAAAAAAAAAAAAAAAAAAAAAAAAAAAAAAAAAAAAAAAAAAAAAAAAAAAAAAAAAAAAAAAAAAAAAAAAAAAAAAAAAAAAAAAAAAAAAAAAAAAAAAAAAAAAAAAAAAAAAAAAAAAAAAAAAAAAAAAAAAAAAAAAAAAAAAAAAAAAAAAAAAAAAAAAAAAAAAAAAAAAAAAAAAAAAAAAAAAAAAAAAAAAAAAAAAAAAAAAAAAAAAAAAAAAAAAAAAAAAAAAAAAAAAAAAAAAAAAAAAAAAAAAAAAAAAAAAAAAAAAAAAAAAAAAAAAAAAAAAAAAAAAAAAAAAAAAAAAAAAAAAAAAAAAAAAAAAAAAAAAAAAAAAAAAAAAAAAAAAAAAAAAAAAAAAAAAAAAAAAAAAAAAAAAAAAAAAAAAAAAAAAAAAAAAAAAAAAAAAAAAAAAAAAAAAAAAAAAAAAAAAAAAAAAAAAAAAAAAAAAAAAAAAAAAAAAAAAAAAAAAAAAAAAAAAAAAAAAAAAAAAAAAAAAAAAAAAAAAAAAAAAAAAAAAAAAAAAAAAAAAAAAAAAAAAAAAAAAAAAAAAAAAAAAAAAAAAAAAAAAAAAAAAAAAAAAAAAAAAAAAAAAAAAAAAAAAAAAAAAAAAAAAAAAAAAAAAAAAAAAAAAAAAAAAAAAAAAAAAAAAAAAAAAAAAAAAAAAAAAAAAAAAAAAAAAAAAAAAAAAAAAAAAAAAAAAAAAAAAAAAAAAAAAAAAAAAAAAAAAAAAAAAAAAAAAAAAAAAAAAAAAAAAAAAAAAAAAAAAAAAAAAAAAAAAAAAAAAAAAAAAAAAAAAAAAAAAAAAAAAAAAAAAAAAAAAAAAAAAAAAAAAAAAAAAAAAAAAAAAAAAAAAAAAAAAAAAAAAAAAAAAAAAAAAAAAAAAAAAAAAAAAAAAAAAAAAAAAAAAAAAAAAAAAAAAAAAAAAAAAAAAAAAAAAAAAAAAAAAAAAAAAAAAAAAAAAAAAAAAAAAAAAAAAAAAAAAAAAAAAAAAAAAAAAAAAAAAAAAAAAAAAAAAAAAAAAAAAAAAAAAAAAAAAAAAAAAAAAAAAAAAAAAAAAAAAAAAAAAAAAAAAAAAAAAAAAAAAAAAAAAAAAAAAAAAAAAAAAAAAAAAAAAAAAAAAAAAAAAAAAAAAAAAAAAAAAAAAAAAAAAAAAAAAAAAAAAAAAAAAAAAAAAAAAAAAAAAAAAAAAAAAAAAAAAAAAAAAAAAAAAAAAAAAAAAAAAAAAAAAAAAAAAAAAAAAAAAAAAAAAAAAAAAAAAAAAAAAAAAAAAAAAAAAAAAAAAAAAAAAAAAAAAAAAAAAAAAAAAAAAAAAAAAAAAAAAAAAAAAAAAAAAAAAAAAAAAAAAAAAAAAAAAAAAAAAAAAAAAAAAAAAAAAAAAAAAAAAAAAAAAAAAAAAAAAAAAAAAAAAAAAAAAAAAAAAAAAAAAAAAAAAAAAAAAAAAAAAAAAAAAAAAAAAAAAAAAAAAAAAAAAAAAAAAAAAAAAAAAAAAAAAAAAAAAAAAAAAAAAAAAAAAAAAAAAAAAAAAAAAAAAAAAAAAAAAAAAAAAAAAAAAAAAAAAAAAAAAAAAAAAAAAAAAAAAAAAAAAAAAAAAAAAAAAAAAAAAAAAAAAAAAAAAAAAAAAAAAAAAAAAAAAAAAAAAAAAAAAAAAAAAAAAAAAAAAAAAAAAAAAAAAAAAAAAAAAAAAAAAAAAAAAAAAAAAAAAAAAAAAAAAAAAAAAAAAAAAAAAAAAAAAAAAAAAAAAAAAAAAAAAAAAAAAAAAAAAAAAAAAAAAAAAAAAAAAAAAAAAAAAAAAAAAAAAAAAAAAAAAAAAAAAAAAAAAAAAAAAAAAAAAAAAAAAAAAAAAAAAAAAAAAAAAAAAAAAAAAAAAAAAAAAAAAAAAAAAAAAAAAAAAAAAAAAAAAAAAAAAAAAAAAAAAAAAAAAAAAAAAAAAAAAAAAAAAAAAAAAAAAAAAAAAAAAAAAAAAAAAAAAAAAAAAAAAAAAAAAAAAAAAAAAAAAAAAAAAAAAAAAAAAAAAAAAAAAAAAAAAAAAAAAAAAAAAAAAAAAAAAAAAAAAAAAAAAAAAAAAAAAAAAAAAAAAAAAAAAAAAAAAAAAAAAAAAAAAAAAAAAAAAAAAAAAAAAAAAAAAAAAAAAAAAAAAAAAAAAAAAAAAAAAAAAAAAAAAAAAAAAAAAAAAAAAAAAAAAAAAAAAAAAAAAAAAAAAAAAAAAAAAAAAAAAAAAAAAAAAAAAAAAAAAAAAAAAAAAAAAAAAAAAAAAAAAAAAAAAAAAAAAAAAAAAAAAAAAAAAAAAAAAAAAAAAAAAAAAAAAAAAAAAAAAAAAAAAAAAAAAAAAAAAAAAAAAAAAAAAAAAAAAAAAAAAAAAAAAAAAAAAAAAAAAAAAAAAAAAAAAAAAAAAAAAAAAAAAAAAAAAAAAAAAAAAAAAAAAAAAAAAAAAAAAAAAAAAAAAAAAAAAAAAAAAAAAAAAAAAAAAAAAAAAAAAAAAAAAAAAAAAAAAAAAAAAAAAAAAAAAAAAAAAAAAAAAAAAAAAAAAAAAAAAAAAAAAAAAAAAAAAAAAAAAAAAAAAAAAAAAAAAAAAAAAAAAAAAAAAAAAAAAAAAAAAAAAAAAAAAAAAAAAAAAAAAAAAAAAAAAAAAAAAAAAAAAAAAAAAAAAAAAAAAAAAAAAAAAAAAAAAAAAAAAAAAAAAAAAAAAAAAAAAAAAAAAAAAAAAAAAAAAAAAAAAAAAAAAAAAAAAAAAAAAAAAAAAAAAAAAAAAAAAAAAAAAAAAAAAAAAAAAAAAAAAAAAAAAAAAAAAAAAAAAAAAAAAAAAAAAAAAAAAAAAAAAAAAAAAAAAAAAAAAAAAAAAAAAAAAAAAAAAAAAAAAAAAAAAAAAAAAAAAAAAAAAAAAAAAAAAAAAAAAAAAAAAAAAAAAAAAAAAAAAAAAAAAAAAAAAAAAAAAAAAAAAAAAAAAAAAAAAAAAAAAAAAAAAAAAAAAAAAAAAAAAAAAAAAAAAAAAAAAAAAAAAAAAAAAAAAAAAAAAAAAAAAAAAAAAAAAAAAAAAAAAAAAAAAAAAAAAAAAAAAAAAAAAAAAAAAAAAAAAAAAAAAAAAAAAAAAAAAAAAAAAAAAAAAAAAAAAAAAAAAAAAAAAAAAAAAAAAAAAAAAAAAAAAAAAAAAAAAAAAAAAAAAAAAAAAAAAAAAAAAAAAAAAAAAAAAAAAAAAAAAAAAAAAAAAAAAAAAAAAAAAAAPZYQPCsrvEdZ7bkslMmnZJiH2Oh5WuuqLxqshn84cWHQi3rXZuTmGdSI2oMWJSB928ximCGbHx7g/0HZPNw1jBUis8=</c2pa:manifest></metadata>
<title>Batua - AI-Powered Personal Finance</title>
<style>
.dr{stroke-dasharray:1 2;animation:draw var(--d,.6s) cubic-bezier(.65,0,.35,1) var(--t) both}
@keyframes draw{from{stroke-dashoffset:1.03}to{stroke-dashoffset:0}}
.pop{transform-box:fill-box;transform-origin:center;animation:pop .45s cubic-bezier(.34,1.56,.64,1) var(--t) both}
@keyframes pop{from{transform:scale(0)}to{transform:scale(1)}}
.cut{animation:cut .01s linear var(--t) both}
@keyframes cut{from{opacity:0}to{opacity:1}}
.wipe{transform-box:fill-box;transform-origin:left center;animation:wipe var(--d) cubic-bezier(.65,0,.35,1) var(--t) both}
@keyframes wipe{from{transform:scaleX(0)}to{transform:scaleX(1)}}
.fade{animation:fade .7s ease-out var(--t) both}
@keyframes fade{from{opacity:0;transform:translateY(8px)}to{opacity:1;transform:none}}
.move,.zoom{transform-origin:0 0;animation-duration:.95s;animation-delay:5.6s;animation-timing-function:cubic-bezier(.65,0,.35,1);animation-fill-mode:both}
.move{animation-name:move} .zoom{animation-name:zoom}
@keyframes move{from{transform:translate(640px,360px)}to{transform:translate(403.5px,360px)}}
@keyframes zoom{from{transform:scale(0.56)}to{transform:scale(0.3)}}
.word{animation:slide .8s cubic-bezier(.22,1,.36,1) 5.95s both}
@keyframes slide{from{transform:translateX(-46px)}to{transform:none}}
@media (prefers-reduced-motion:reduce){*{animation:none!important}}
</style>
<defs>
<mask id="logo-holes" maskUnits="userSpaceOnUse" x="0" y="0" width="973" height="973">
      <rect x="0" y="0" width="973" height="973" fill="#fff" />
      <circle cx="338.7" cy="239.0" r="42" fill="#000" />
      <circle cx="481.5" cy="364.9" r="42" fill="#000" />
      <circle cx="339.0" cy="426.8" r="42" fill="#000" />
      <circle cx="629.5" cy="684.2" r="22" fill="#000" />
      <rect x="355" y="578" width="175" height="228" fill="#000" />
    </mask>
<g id="art"><g mask="url(#logo-holes)">
    <g transform="scale(0.25) translate(0.000000,3892.000000) scale(0.100000,-0.100000)" fill="#F2F1EE" stroke="none">
      <path d="M29875 35248 c-22 -5 -67 -18 -100 -28 -61 -18 -152 -43 -285 -80
-73 -20 -127 -35 -275 -78 -38 -11 -106 -30 -150 -42 -44 -12 -107 -30 -140
-40 -33 -10 -96 -28 -140 -40 -44 -13 -107 -31 -140 -41 -33 -10 -91 -27 -130
-39 -38 -11 -97 -29 -130 -39 -33 -10 -96 -29 -140 -41 -44 -12 -107 -30 -140
-40 -92 -27 -182 -53 -418 -120 -39 -12 -101 -29 -137 -39 -36 -10 -96 -28
-135 -39 -38 -11 -106 -30 -150 -42 -44 -12 -107 -30 -140 -40 -33 -10 -96
-27 -140 -39 -180 -50 -351 -98 -430 -121 -67 -19 -171 -49 -285 -80 -41 -11
-104 -30 -140 -40 -36 -11 -70 -20 -76 -20 -6 0 -40 -9 -75 -19 -69 -21 -167
-49 -281 -81 -178 -50 -490 -140 -683 -198 -38 -12 -89 -26 -112 -32 -35 -9
-43 -15 -43 -33 0 -12 8 -27 18 -33 20 -13 123 -100 272 -228 229 -197 390
-336 494 -426 60 -52 141 -122 181 -155 288 -239 475 -404 475 -419 0 -7 -8
-21 -18 -32 -10 -10 -65 -71 -122 -134 -58 -63 -208 -225 -335 -360 -126 -135
-252 -270 -280 -300 -202 -217 -609 -653 -865 -925 -119 -126 -272 -291 -340
-365 -156 -170 -670 -717 -940 -1000 -327 -342 -639 -671 -910 -960 -96 -102
-217 -230 -270 -285 -53 -55 -145 -152 -205 -215 -60 -63 -166 -173 -235 -245
-194 -200 -364 -377 -631 -655 -264 -276 -302 -316 -609 -640 -486 -512 -631
-660 -657 -666 -12 -4 -44 2 -70 11 -212 77 -357 105 -534 105 -156 0 -381
-40 -514 -91 -80 -31 -247 -107 -305 -140 -86 -48 -117 -54 -155 -30 -47 29
-254 210 -869 761 -127 113 -273 243 -326 290 -53 47 -179 160 -281 251 -101
91 -348 312 -549 490 -444 394 -878 780 -905 805 -11 11 -103 95 -203 188
-101 93 -186 175 -189 183 -3 7 5 34 17 60 87 185 150 475 150 690 0 156 -38
377 -91 537 -150 446 -569 847 -1044 999 -167 54 -221 61 -450 61 -233 0 -284
-8 -465 -66 -216 -70 -427 -198 -608 -372 -207 -198 -327 -394 -421 -686 -67
-209 -85 -524 -42 -752 63 -340 174 -559 395 -787 224 -229 415 -355 666 -440
l105 -36 6 -290 c12 -551 10 -4076 -2 -4091 -6 -7 -32 -20 -57 -30 -380 -135
-660 -347 -866 -654 -128 -190 -204 -382 -247 -615 -45 -251 -22 -547 61 -795
89 -262 264 -517 475 -689 307 -250 636 -373 1005 -374 296 0 594 82 825 228
63 40 212 156 266 207 209 196 378 476 448 738 48 182 61 397 35 591 l-6 47
107 51 c59 28 109 51 111 51 2 0 36 15 76 34 40 18 103 48 141 65 153 71 205
95 272 126 39 18 133 61 210 95 77 34 164 73 193 86 28 13 78 35 110 49 31 14
65 30 74 35 10 6 120 56 245 111 126 55 275 123 331 150 57 27 105 49 107 49
4 0 90 40 263 121 45 21 84 39 87 39 2 0 39 16 82 36 43 20 97 45 121 55 23
11 61 28 85 38 23 11 76 33 117 51 41 17 87 37 102 45 42 24 55 19 111 -41
141 -153 342 -315 482 -389 138 -73 364 -137 555 -157 467 -48 921 103 1249
417 171 163 305 382 386 630 88 271 96 570 23 860 -17 66 -31 132 -32 147 -1
21 41 69 233 265 337 342 659 671 861 878 96 99 299 306 450 460 151 154 327
334 390 400 199 209 322 335 1460 1500 102 105 257 264 345 355 874 903 2802
2840 2826 2840 14 0 162 -168 454 -515 33 -39 139 -165 235 -279 230 -273 383
-457 532 -641 126 -156 154 -176 169 -125 4 14 19 77 34 140 14 63 35 151 45
195 10 44 40 170 65 280 65 284 226 941 280 1140 23 86 53 205 95 380 17 69
45 191 105 460 7 33 34 148 60 255 69 285 83 347 100 430 9 41 20 90 25 110 5
19 21 87 35 150 15 63 35 151 45 195 11 44 28 121 40 170 34 150 99 425 120
505 11 41 47 188 80 325 34 138 77 313 96 389 19 77 34 150 34 163 0 26 -16
28 -85 11z m-16099 -5274 c84 -27 128 -51 211 -116 121 -95 200 -228 235 -395
18 -86 19 -108 9 -185 -22 -171 -75 -285 -185 -399 -82 -84 -160 -133 -276
-172 -97 -33 -276 -31 -380 2 -174 57 -322 179 -398 326 -48 96 -67 183 -65
315 0 104 5 138 25 202 64 194 199 341 381 415 115 46 313 49 443 7z m862
-2056 c176 -154 839 -742 952 -844 99 -90 459 -409 625 -554 104 -91 252 -221
328 -290 77 -69 166 -147 198 -175 228 -199 877 -793 1037 -949 57 -56 82 -88
82 -104 0 -13 -11 -51 -24 -85 -40 -102 -62 -176 -87 -292 -21 -97 -23 -133
-21 -310 2 -110 4 -220 5 -245 l2 -45 -55 -28 c-30 -15 -127 -60 -215 -99 -88
-39 -198 -89 -245 -111 -47 -21 -152 -71 -235 -109 -82 -38 -177 -82 -210 -98
-33 -15 -85 -39 -115 -53 -175 -79 -324 -148 -584 -271 -65 -31 -120 -56 -122
-56 -2 0 -60 -27 -129 -60 -69 -33 -128 -60 -130 -60 -2 0 -53 -23 -112 -51
-59 -28 -148 -69 -198 -91 -49 -22 -115 -51 -145 -65 -130 -60 -186 -85 -205
-93 -11 -5 -46 -20 -77 -34 -31 -14 -64 -23 -72 -20 -9 3 -38 37 -66 75 -27
37 -90 108 -140 157 -189 189 -385 307 -685 414 -22 7 -44 23 -50 34 -7 14 -8
741 -5 2199 l5 2180 25 6 c153 43 197 59 275 96 50 24 119 66 155 93 36 27 75
49 87 49 14 1 67 -39 151 -111z m4816 -2993 c110 -34 195 -86 275 -170 229
-244 247 -619 41 -872 -93 -115 -221 -188 -381 -218 -91 -17 -100 -17 -193 0
-260 46 -454 211 -528 448 -33 105 -32 283 1 382 75 220 219 364 437 434 92
30 243 28 348 -4z m-5740 -2445 c79 -13 156 -45 238 -98 259 -167 353 -540
211 -839 -163 -345 -558 -476 -895 -296 -91 49 -203 153 -251 234 -64 109 -89
204 -89 344 -1 105 3 129 26 194 77 217 204 355 402 436 78 32 245 44 358 25z" />
      <path d="M8362 33712 c-16 -11 -18 -27170 -2 -27347 24 -253 91 -538 179 -760
72 -184 210 -444 335 -630 246 -370 642 -709 1051 -900 55 -25 108 -50 117
-56 19 -10 49 -21 178 -66 163 -57 328 -98 530 -130 110 -17 332 -18 5605 -18
5213 0 5499 1 5675 18 102 10 228 24 280 32 52 8 131 19 175 25 69 9 191 30
405 70 30 6 89 19 130 30 204 53 278 73 315 85 22 7 74 23 115 35 104 31 225
71 360 120 208 75 239 87 325 124 17 8 61 26 99 41 38 15 77 31 85 35 9 5 59
28 111 52 694 316 1305 747 1911 1348 588 584 1033 1204 1403 1955 219 445
331 725 460 1156 15 47 35 94 45 103 10 9 44 27 77 40 312 124 537 276 720
484 207 235 311 461 376 812 23 125 23 125 22 1030 -1 865 -2 913 -22 1084
-32 262 -68 393 -162 591 -65 139 -110 212 -190 310 -138 169 -311 313 -485
404 -98 52 -275 131 -291 131 -28 0 -84 62 -94 103 -25 99 -167 523 -215 642
-77 191 -91 221 -196 430 -256 509 -561 990 -888 1400 -605 758 -1294 1313
-2193 1767 -197 100 -353 171 -400 182 -53 12 -30 34 100 98 115 56 377 200
427 235 11 7 83 54 160 105 186 121 430 297 585 421 447 359 1003 930 1351
1387 321 421 587 847 827 1325 120 238 152 308 258 568 187 459 340 983 443
1521 41 212 59 314 65 366 3 25 13 95 21 155 89 658 89 1571 -1 2245 -33 251
-86 558 -124 727 -25 106 -62 262 -81 338 -42 165 -172 571 -254 790 -14 39
-30 81 -35 95 -19 58 -102 253 -149 353 -28 59 -51 110 -51 112 0 4 -95 183
-163 305 -115 211 -246 430 -262 442 -5 4 -18 8 -27 8 -18 0 -71 -54 -686
-691 -62 -64 -112 -120 -112 -124 0 -5 28 -64 61 -133 54 -110 260 -608 309
-747 180 -512 309 -1014 360 -1405 7 -46 13 -87 15 -90 2 -3 15 -109 29 -235
63 -570 65 -1183 5 -1705 -46 -398 -96 -677 -175 -970 -14 -52 -34 -126 -44
-165 -69 -258 -203 -633 -343 -955 -196 -454 -448 -886 -764 -1307 -431 -575
-1006 -1119 -1593 -1507 -74 -49 -146 -96 -160 -106 -157 -106 -715 -393 -925
-475 -38 -15 -97 -37 -130 -50 -83 -32 -326 -113 -405 -135 -316 -86 -576
-141 -768 -160 -57 -6 -125 -16 -150 -22 -35 -9 -1581 -13 -6199 -15 -5865 -3
-6153 -2 -6160 14 -4 10 -6 3033 -3 6718 l5 6700 5970 0 c5713 0 5977 -1 6135
-18 322 -36 451 -57 735 -118 253 -55 546 -142 870 -259 127 -46 292 -115 390
-163 38 -19 77 -32 87 -29 10 2 43 36 75 76 31 39 98 118 149 176 51 58 118
137 151 176 32 39 126 151 208 248 184 218 172 202 159 224 -13 20 -386 211
-587 300 -149 67 -358 152 -373 152 -5 1 -27 9 -49 20 -22 11 -45 19 -51 20
-6 0 -33 9 -60 19 -77 30 -273 92 -469 147 -203 57 -615 154 -657 154 -13 0
-54 7 -93 15 -112 25 -351 55 -645 82 -172 16 -625 18 -6660 20 -3561 2 -6481
-1 -6488 -5z m13938 -15960 c36 -6 117 -18 180 -26 313 -42 618 -116 980 -236
47 -15 96 -33 110 -38 14 -6 68 -27 120 -48 306 -119 612 -275 890 -452 116
-74 139 -90 275 -186 288 -205 475 -364 751 -640 316 -316 488 -526 737 -896
197 -292 376 -633 505 -960 103 -262 111 -284 101 -296 -8 -10 -210 -14 -887
-17 -824 -4 -887 -5 -1042 -25 -265 -35 -452 -80 -660 -159 -74 -28 -285 -131
-345 -168 -22 -13 -53 -32 -68 -40 -16 -9 -68 -44 -115 -77 -482 -339 -833
-868 -962 -1448 -61 -276 -78 -680 -40 -940 39 -261 102 -465 215 -695 330
-672 944 -1152 1665 -1303 266 -56 273 -57 1288 -60 1010 -3 967 -1 947 -49
-7 -16 -43 -113 -92 -248 -47 -129 -119 -294 -205 -465 -54 -107 -102 -202
-107 -210 -6 -8 -49 -80 -97 -160 -353 -586 -810 -1139 -1235 -1495 -398 -333
-725 -548 -1199 -785 -201 -101 -232 -116 -360 -170 -41 -17 -89 -38 -107 -46
-17 -8 -34 -14 -38 -14 -4 0 -21 -7 -38 -15 -53 -24 -199 -74 -347 -117 -182
-54 -207 -61 -265 -75 -342 -79 -503 -106 -845 -144 -116 -13 -11016 -12
-11090 1 -290 49 -497 128 -709 267 -169 112 -363 335 -470 543 -70 136 -148
382 -172 545 -5 34 -9 2500 -9 5704 0 4522 2 5646 12 5653 20 13 12650 3
12728 -10z m5595 -4991 c166 -37 318 -181 354 -336 20 -88 32 -603 28 -1225
-4 -659 -3 -647 -63 -755 -35 -61 -126 -142 -204 -179 l-65 -31 -1405 -7
c-1225 -7 -1420 -6 -1525 7 -170 22 -296 63 -447 149 -394 221 -618 620 -621
1101 -1 196 24 334 90 504 104 266 302 486 575 636 101 55 180 83 358 126 103
26 2815 35 2925 10z" />
      <path d="M15493 15108 c-36 -9 -52 -33 -111 -164 -41 -92 -99 -214 -221 -467
-39 -81 -71 -150 -71 -154 0 -3 -12 -30 -27 -58 -14 -29 -23 -60 -20 -68 3 -9
24 -18 50 -22 24 -4 297 -4 608 -1 543 5 842 -2 954 -24 157 -31 270 -61 400
-106 59 -20 253 -119 310 -158 70 -48 174 -146 225 -212 62 -83 132 -226 128
-262 l-3 -27 -1120 -5 c-905 -5 -1125 -9 -1147 -19 -19 -10 -40 -41 -72 -107
-25 -52 -46 -96 -46 -98 0 -2 -32 -71 -71 -153 -39 -81 -89 -185 -110 -231
-22 -46 -58 -121 -80 -168 -23 -48 -38 -92 -35 -101 6 -15 120 -16 1371 -10
949 4 1374 3 1395 -4 35 -13 35 -16 14 -105 -73 -317 -377 -564 -839 -682
-277 -71 -418 -82 -1101 -89 -303 -3 -557 -9 -564 -13 -18 -11 -14 -843 5
-879 13 -25 262 -311 819 -940 138 -157 298 -339 356 -405 133 -154 361 -415
465 -531 44 -49 148 -169 230 -265 83 -96 251 -290 375 -430 124 -141 299
-340 390 -443 137 -156 170 -188 198 -193 24 -5 1368 1 1390 5 14 4 -28 57
-206 259 -114 130 -320 368 -457 527 -137 160 -324 376 -415 480 -179 205
-426 491 -530 615 -36 42 -137 159 -225 260 -88 101 -205 236 -260 299 -148
173 -615 700 -653 738 -18 19 -32 39 -29 46 2 7 44 17 103 23 201 24 340 44
369 54 16 5 53 12 80 16 106 14 432 107 522 149 17 8 34 15 38 15 4 0 64 28
133 62 350 170 621 404 814 703 125 192 197 387 227 610 8 54 17 84 28 93 11
8 62 12 157 13 270 2 691 16 709 24 22 9 45 53 112 219 29 72 69 169 88 216
109 265 157 387 157 402 0 10 -8 22 -19 27 -11 6 -238 10 -607 11 -655 0 -626
-3 -637 68 -10 58 -79 266 -121 360 -45 101 -92 182 -163 284 -29 42 -53 81
-53 87 0 8 174 11 608 12 334 1 618 4 631 8 24 7 44 37 87 136 14 33 52 114
84 180 81 167 152 318 185 395 15 36 39 89 51 119 29 64 30 77 7 85 -26 10
-4823 4 -4860 -6z" />
      <path d="M25028 12256 c-179 -49 -326 -156 -420 -306 -82 -133 -121 -273 -121
-435 -1 -206 60 -367 191 -506 70 -75 186 -158 242 -174 14 -4 30 -11 36 -16
17 -13 200 -49 253 -49 120 0 284 44 395 106 107 60 240 212 295 339 34 78 61
215 61 312 0 280 -162 551 -401 670 -128 64 -177 76 -319 80 -106 2 -138 -1
-212 -21z" />
    </g>
  </g>
  <circle cx="338.7" cy="239.0" r="28.4" fill="none" stroke="#3EC28A" stroke-width="22" />
  <circle cx="481.5" cy="364.9" r="28.4" fill="none" stroke="#3EC28A" stroke-width="22" />
  <circle cx="339.0" cy="426.8" r="28.4" fill="none" stroke="#3EC28A" stroke-width="22" />
  <circle cx="629.5" cy="684.2" r="18.6" fill="#F2F1EE" />
  <g transform="translate(377.95,595) scale(0.08703)">
    <g transform="translate(0,2172) scale(0.1,-0.1)">
      <path d="M7925 21620 l-6629 -5 -66 -96 c-36 -53 -70 -104 -77 -115 -6 -10
-28 -46 -49 -79 -20 -33 -51 -78 -69 -100 -17 -22 -34 -47 -38 -57 -6 -17 -81
-134 -266 -415 -58 -88 -153 -235 -211 -324 -58 -90 -115 -177 -127 -194 -12
-16 -34 -50 -49 -75 -15 -25 -69 -108 -119 -185 -51 -77 -99 -153 -109 -170
-9 -16 -32 -52 -51 -79 -19 -26 -35 -56 -35 -66 0 -17 78 -18 1582 -23 961 -3
1636 -10 1718 -16 74 -6 221 -15 325 -20 105 -6 233 -15 285 -20 52 -6 167
-17 255 -26 88 -9 199 -23 246 -31 48 -8 105 -14 126 -14 22 0 53 -4 69 -10
16 -5 63 -14 104 -20 41 -5 109 -17 150 -25 41 -9 98 -20 127 -25 28 -4 57
-12 64 -16 7 -4 37 -13 68 -20 31 -6 70 -17 86 -22 17 -6 50 -15 75 -21 96
-24 198 -53 260 -75 244 -87 505 -193 536 -217 6 -5 58 -33 115 -63 349 -178
709 -475 955 -788 101 -129 189 -250 218 -303 10 -16 37 -66 62 -110 90 -162
146 -283 142 -312 l-3 -28 -3152 -5 c-1733 -3 -3153 -7 -3155 -10 -2 -3 -42
-63 -88 -135 -46 -71 -121 -188 -168 -260 -47 -71 -108 -166 -137 -210 -28
-44 -106 -163 -173 -265 -66 -102 -141 -216 -165 -255 -25 -38 -85 -130 -134
-204 -48 -73 -97 -147 -107 -165 -11 -17 -50 -78 -88 -134 -37 -57 -68 -106
-68 -108 0 -3 -27 -45 -60 -94 -33 -49 -61 -100 -63 -112 l-2 -23 3912 -5
c3076 -4 3915 -8 3924 -17 13 -13 14 -61 4 -273 -7 -139 -24 -252 -69 -455
-22 -96 -64 -257 -77 -295 -48 -137 -64 -180 -81 -220 -68 -156 -152 -328
-183 -374 -14 -20 -32 -53 -40 -73 -28 -67 -178 -282 -320 -458 -103 -128
-370 -396 -505 -506 -123 -101 -306 -235 -382 -280 -29 -18 -69 -42 -88 -54
-150 -95 -457 -258 -550 -292 -63 -22 -229 -91 -263 -109 -16 -8 -33 -14 -39
-14 -5 0 -24 -6 -41 -14 -18 -8 -77 -28 -132 -46 -55 -17 -113 -36 -130 -41
-167 -57 -455 -126 -655 -159 -65 -11 -149 -26 -245 -46 -196 -40 -293 -50
-910 -94 -71 -5 -652 -9 -1290 -10 -889 0 -1164 -3 -1173 -12 -9 -9 -12 -233
-12 -946 l0 -934 22 -31 c20 -28 72 -95 234 -300 26 -32 56 -71 68 -86 11 -16
66 -85 121 -153 55 -68 128 -160 161 -205 34 -45 85 -108 112 -140 28 -32 62
-72 74 -90 23 -31 83 -107 216 -271 37 -46 87 -110 112 -142 25 -32 68 -86 95
-120 72 -90 356 -447 455 -573 47 -60 111 -141 142 -180 32 -40 78 -99 102
-132 25 -33 53 -69 63 -80 20 -21 165 -200 198 -244 41 -54 457 -579 506 -638
28 -34 59 -74 69 -90 9 -15 39 -53 66 -84 27 -30 69 -82 94 -114 120 -155 217
-276 270 -340 32 -38 73 -90 91 -115 36 -50 144 -188 185 -235 14 -16 80 -99
147 -183 67 -84 148 -186 179 -225 58 -72 156 -197 250 -317 28 -36 103 -130
167 -209 64 -79 125 -155 135 -170 11 -14 63 -80 115 -145 53 -66 115 -144
137 -173 23 -30 55 -71 72 -91 17 -20 59 -74 94 -119 35 -45 88 -113 119 -150
65 -80 334 -419 399 -502 25 -33 61 -78 81 -102 46 -56 378 -476 404 -510 11
-15 50 -64 88 -110 37 -46 101 -127 142 -179 42 -52 131 -165 199 -250 401
-507 570 -719 599 -754 18 -22 57 -72 87 -111 30 -40 98 -126 150 -191 53 -65
104 -131 115 -145 11 -15 72 -91 135 -170 64 -79 161 -202 217 -274 56 -72
108 -137 115 -145 65 -75 118 -143 118 -151 0 -5 661 -9 1770 -9 1372 0 1770
3 1770 12 0 7 -13 26 -29 43 -15 16 -67 80 -115 140 -47 61 -92 117 -99 125
-8 8 -51 62 -97 120 -46 58 -183 229 -305 380 -121 151 -229 287 -240 301 -31
41 -144 181 -167 209 -18 21 -366 453 -438 544 -14 17 -86 107 -160 200 -74
93 -144 181 -155 195 -11 14 -83 105 -160 201 -77 96 -162 202 -189 235 -98
123 -183 228 -236 293 -30 36 -71 87 -90 113 -19 26 -60 78 -91 116 -31 37
-156 194 -279 348 -123 154 -244 305 -269 336 -90 109 -486 604 -552 688 -19
25 -96 121 -170 213 -224 278 -389 484 -494 618 -55 70 -136 171 -180 225 -44
53 -91 111 -105 129 -42 54 -297 372 -520 650 -202 252 -242 303 -320 401 -39
50 -94 117 -121 150 -28 33 -78 96 -112 140 -33 44 -78 100 -99 125 -77 92
-150 181 -208 257 -69 90 -181 232 -257 324 -29 35 -77 96 -108 134 -31 39
-81 102 -113 141 -31 39 -88 110 -127 159 -38 48 -84 104 -101 124 -17 20 -58
70 -90 112 -58 75 -180 229 -206 259 -17 20 -103 128 -125 159 -10 13 -32 40
-49 60 -38 43 -279 345 -314 392 -14 18 -41 52 -61 74 -20 22 -51 61 -70 86
-32 43 -124 160 -188 239 -41 50 -91 111 -131 161 -19 23 -50 61 -68 82 -18
22 -31 45 -29 51 2 6 35 14 73 19 38 4 128 14 200 22 72 8 152 15 179 15 26 0
93 7 149 15 55 8 166 24 246 35 187 26 314 45 420 65 47 8 109 20 138 25 28 6
77 14 107 19 30 6 62 14 72 19 10 6 40 13 68 17 27 5 64 14 82 21 18 8 46 14
63 14 17 0 41 5 52 11 11 6 57 20 102 30 44 11 98 26 119 34 20 8 51 15 67 15
16 0 31 4 34 9 3 5 39 19 78 31 127 37 412 130 448 144 19 8 67 27 105 41 39
15 75 30 80 34 6 4 30 14 55 21 25 8 72 26 105 41 292 131 411 186 475 218
126 63 294 152 320 170 14 10 77 46 140 81 63 35 133 76 155 90 22 15 85 57
140 93 55 37 129 87 165 112 36 25 81 56 100 69 41 27 271 208 381 298 314
259 770 741 945 998 20 30 52 73 69 95 54 67 196 285 271 418 22 37 63 109 92
160 29 51 61 110 71 132 10 22 38 81 61 130 65 138 90 196 110 250 10 28 37
97 60 155 23 58 47 123 55 145 7 22 21 60 30 85 14 38 57 194 84 305 5 17 13
46 19 65 22 66 89 420 107 562 11 85 -105 78 1281 78 677 0 1238 2 1247 6 9 3
31 31 49 63 18 31 62 101 98 155 36 54 70 106 75 115 67 106 201 312 216 331
10 14 26 38 35 54 36 64 176 278 214 326 8 11 29 42 45 70 32 53 139 220 260
405 40 61 108 166 151 234 43 67 89 136 102 151 12 15 22 37 22 49 l0 21
-1918 0 c-1828 0 -1920 1 -1935 18 -9 10 -21 51 -27 92 -18 129 -59 331 -93
460 -11 41 -23 91 -27 110 -3 19 -12 46 -20 60 -7 13 -17 38 -21 55 -4 16 -17
55 -29 85 -12 30 -30 80 -41 110 -10 30 -23 64 -29 75 -5 11 -21 49 -36 85
-32 79 -192 403 -203 410 -4 3 -38 57 -76 120 -37 63 -91 147 -119 185 -28 39
-64 90 -80 115 -17 25 -53 70 -82 100 -57 61 -68 82 -51 99 8 8 481 11 1763
11 l1752 0 36 44 c20 24 36 48 36 52 0 4 11 24 23 43 13 20 62 95 109 166 46
72 102 156 124 188 21 32 59 91 84 130 63 101 118 186 245 379 61 92 147 225
192 295 46 70 102 157 125 192 24 35 57 87 75 115 101 159 181 281 201 306 26
33 29 65 6 74 -9 3 -19 5 -22 4 -4 -2 -2990 -5 -6637 -8z" fill="#F2F1EE" />
    </g>
  </g>
</g>
<mask id="m-out" maskUnits="userSpaceOnUse" x="0" y="0" width="973" height="973">
<rect class="cut" style="--t:.3s" x="195" y="117" width="40" height="40" fill="#fff"/>
<path class="dr" style="--t:.3s;--d:1.5s" d="M223.5 145V817A45 45 0 0 0 268.5 862H530A175 175 0 0 0 675 785" fill="none" stroke="#fff" stroke-width="56" pathLength="1"/>
<path class="dr" style="--t:.5s;--d:.75s" d="M223.5 145H514A183.5 183.5 0 0 1 590 161.5" fill="none" stroke="#fff" stroke-width="56" pathLength="1"/>
<path class="dr" style="--t:1.2s;--d:.6s" d="M668 229A183.5 183.5 0 0 1 514 512" fill="none" stroke="#fff" stroke-width="56" pathLength="1"/>
<path class="dr" style="--t:1.75s;--d:.5s" d="M223.5 512.5H530" fill="none" stroke="#fff" stroke-width="56" pathLength="1"/>
<path class="dr" style="--t:2.2s;--d:.35s" d="M530 512A175 175 0 0 1 672 585" fill="none" stroke="#fff" stroke-width="56" pathLength="1"/>
</mask>
<mask id="m-clasp" maskUnits="userSpaceOnUse" x="0" y="0" width="973" height="973"><rect class="wipe" style="--t:2.6s;--d:.55s" x="560" y="575" width="200" height="225" fill="#fff"/></mask>
<mask id="m-rupee" maskUnits="userSpaceOnUse" x="0" y="0" width="973" height="973"><rect x="350" y="570" width="185" height="240" fill="#fff"/></mask>
<mask id="m-nodes" maskUnits="userSpaceOnUse" x="0" y="0" width="973" height="973">
<circle class="pop" style="--t:3.8s" cx="338.7" cy="239.0" r="58" fill="#fff"/><circle class="pop" style="--t:3.9499999999999997s" cx="481.5" cy="364.9" r="58" fill="#fff"/><circle class="pop" style="--t:4.1s" cx="339.0" cy="426.8" r="58" fill="#fff"/>
<path class="dr" style="--t:4.2s;--d:.35s" d="M338.7 239L339 426.8" fill="none" stroke="#fff" stroke-width="44" pathLength="1"/>
<path class="dr" style="--t:4.45s;--d:.4s" d="M338.7 239L481.5 364.9" fill="none" stroke="#fff" stroke-width="44" pathLength="1"/>
<path class="dr" style="--t:4.6s;--d:.4s" d="M481.5 364.9L339 426.8" fill="none" stroke="#fff" stroke-width="44" pathLength="1"/>
</mask>
<mask id="m-arrow" maskUnits="userSpaceOnUse" x="0" y="0" width="973" height="973"><path class="dr" style="--t:4.95s;--d:.7s" d="M481.5 364.9L785 60" fill="none" stroke="#fff" stroke-width="150" pathLength="1"/></mask>
<clipPath id="c-word"><rect class="wipe" style="--t:5.95s;--d:.8s" x="510.2" y="240" width="460.9" height="200"/></clipPath>
</defs>
<g class="move" transform="translate(403.5 360)"><g class="zoom" transform="scale(0.3)"><g transform="translate(-485 -484)">
<use href="#art" mask="url(#m-out)"/>
<use href="#art" mask="url(#m-clasp)"/>
<use href="#art" mask="url(#m-rupee)" class="fade" style="--t:3.2s"/>
<use href="#art" mask="url(#m-nodes)"/>
<use href="#art" mask="url(#m-arrow)"/>
</g></g></g>
<g clip-path="url(#c-word)"><g class="word"><path d="M533.8 384V286H581.68Q600.16 286 609.47 293Q618.78 300 618.78 311.48Q618.78 319.18 615 324.78Q611.64 329.96 605.9 332.9Q607.3 333.46 608.56 333.88Q615.7 336.96 619.69 342.84Q623.68 348.72 623.68 357.26Q623.68 369.86 613.74 376.93Q603.8 384 584.48 384ZM556.34 366.92H582.8Q591.62 366.92 596.17 364.05Q600.72 361.18 600.72 354.88Q600.72 348.72 596.17 345.71Q591.62 342.7 582.8 342.7H556.34ZM556.34 326.18H578.88Q587.14 326.18 591.55 323.31Q595.96 320.44 595.96 314.56Q595.96 308.82 591.55 305.95Q587.14 303.08 578.88 303.08H556.34ZM685.56 384V374.62Q683.04 378.82 678.84 381.34Q672.54 385.12 662.6 385.12Q653.78 385.12 647.48 382.11Q641.18 379.1 637.82 373.92Q634.46 368.74 634.46 362.3Q634.46 355.58 637.75 350.54Q641.04 345.5 648.18 342.63Q655.32 339.76 666.8 339.76H684.16Q684.16 332.76 679.89 328.84Q675.62 324.92 666.8 324.92Q660.78 324.92 654.97 326.81Q649.16 328.7 645.1 331.92L637.26 316.66Q643.42 312.32 652.1 309.94Q660.78 307.56 669.74 307.56Q686.96 307.56 696.48 315.68Q706 323.8 706 341.02V384ZM684.16 352.5H669.18Q661.48 352.5 658.61 355.02Q655.74 357.54 655.74 361.32Q655.74 365.52 659.03 367.97Q662.32 370.42 668.06 370.42Q673.52 370.42 677.86 367.83Q682.2 365.24 684.16 360.2ZM756.54 385.12Q743.24 385.12 735.82 378.33Q728.4 371.54 728.4 358.1V325.48H716.78V308.68H728.4V292.02H750.24V308.68H769V325.48H750.24V357.82Q750.24 362.58 752.76 365.17Q755.28 367.76 759.62 367.76Q764.8 367.76 768.44 364.96L774.32 380.36Q770.96 382.74 766.27 383.93Q761.58 385.12 756.54 385.12ZM818.42 385.12Q809.04 385.12 801.69 381.48Q794.34 377.84 790.28 370.35Q786.22 362.86 786.22 351.24V308.68H808.06V348.02Q808.06 357.4 812.05 361.81Q816.04 366.22 823.32 366.22Q828.36 366.22 832.28 364.05Q836.2 361.88 838.44 357.33Q840.68 352.78 840.68 345.92V308.68H862.52V384H841.8V375.18Q838.72 378.82 834.52 381.06Q827.1 385.12 818.42 385.12ZM929.02 384V374.62Q926.5 378.82 922.3 381.34Q916 385.12 906.06 385.12Q897.24 385.12 890.94 382.11Q884.64 379.1 881.28 373.92Q877.92 368.74 877.92 362.3Q877.92 355.58 881.21 350.54Q884.5 345.5 891.64 342.63Q898.78 339.76 910.26 339.76H927.62Q927.62 332.76 923.35 328.84Q919.08 324.92 910.26 324.92Q904.24 324.92 898.43 326.81Q892.62 328.7 888.56 331.92L880.72 316.66Q886.88 312.32 895.56 309.94Q904.24 307.56 913.2 307.56Q930.42 307.56 939.94 315.68Q949.46 323.8 949.46 341.02V384ZM927.62 352.5H912.64Q904.94 352.5 902.07 355.02Q899.2 357.54 899.2 361.32Q899.2 365.52 902.49 367.97Q905.78 370.42 911.52 370.42Q916.98 370.42 921.32 367.83Q925.66 365.24 927.62 360.2Z" fill="#F2F1EE"/></g></g>
<path class="fade" style="--t:6.45s" d="M524.15 432 533 412.46H535.76L544.64 432H541.71L539.56 427.12H529.18L527.03 432ZM538.58 424.88 534.37 415.31 530.15 424.88ZM547.54 432V412.46H550.33V432ZM554.85 425.5V423.18H562.36V425.5ZM566.88 432V412.46H574.5Q577.07 412.46 578.88 413.27Q580.7 414.08 581.67 415.62Q582.65 417.15 582.65 419.27Q582.65 421.39 581.67 422.92Q580.7 424.44 578.88 425.26Q577.07 426.08 574.5 426.08H569.67V432ZM569.67 423.65H574.42Q577.1 423.65 578.48 422.51Q579.86 421.37 579.86 419.27Q579.86 417.18 578.48 416.04Q577.1 414.89 574.42 414.89H569.67ZM592.98 432.17Q590.75 432.17 589.01 431.19Q587.28 430.21 586.28 428.5Q585.27 426.78 585.27 424.6Q585.27 422.4 586.28 420.7Q587.28 418.99 589.01 418.03Q590.75 417.07 592.98 417.07Q595.18 417.07 596.93 418.03Q598.67 418.99 599.66 420.68Q600.65 422.37 600.65 424.6Q600.65 426.81 599.66 428.51Q598.67 430.21 596.93 431.19Q595.18 432.17 592.98 432.17ZM592.98 429.82Q594.4 429.82 595.53 429.18Q596.66 428.54 597.3 427.35Q597.95 426.17 597.95 424.6Q597.95 423.01 597.3 421.85Q596.66 420.7 595.53 420.05Q594.4 419.41 592.98 419.41Q591.55 419.41 590.44 420.05Q589.32 420.7 588.65 421.85Q587.98 423.01 587.98 424.6Q587.98 426.17 588.65 427.35Q589.32 428.54 590.44 429.18Q591.55 429.82 592.98 429.82ZM607.49 432 601.99 417.21H604.53L608.83 428.99L613.3 417.21H615.56L619.94 429.04L624.35 417.21H626.75L621.22 432H618.66L614.39 420.78L610.06 432ZM636.04 432.17Q633.67 432.17 631.87 431.19Q630.07 430.21 629.08 428.51Q628.09 426.81 628.09 424.6Q628.09 422.4 629.05 420.7Q630.01 418.99 631.7 418.03Q633.39 417.07 635.51 417.07Q637.66 417.07 639.31 418.02Q640.96 418.97 641.89 420.68Q642.83 422.4 642.83 424.69Q642.83 424.86 642.81 425.08Q642.8 425.3 642.77 425.5H630.77Q630.88 426.53 631.41 427.37Q632.08 428.54 633.31 429.18Q634.54 429.82 636.13 429.82Q637.44 429.82 638.51 429.38Q639.59 428.93 640.4 428.04L641.88 429.77Q640.87 430.94 639.38 431.55Q637.89 432.17 636.04 432.17ZM630.74 423.57H640.26Q640.17 422.54 639.7 421.7Q639.09 420.58 638.01 419.96Q636.94 419.33 635.51 419.33Q634.12 419.33 633.03 419.96Q631.94 420.58 631.33 421.7Q630.88 422.57 630.74 423.57ZM646.54 432V417.21H649.11V419.69Q649.72 418.55 650.92 417.88Q652.37 417.07 654.49 417.07V419.66Q654.32 419.64 654.18 419.64H653.88Q651.73 419.64 650.47 420.92Q649.22 422.2 649.22 424.63V432ZM664.57 432.17Q662.19 432.17 660.39 431.19Q658.59 430.21 657.6 428.51Q656.61 426.81 656.61 424.6Q656.61 422.4 657.58 420.7Q658.54 418.99 660.23 418.03Q661.92 417.07 664.04 417.07Q666.19 417.07 667.83 418.02Q669.48 418.97 670.41 420.68Q671.35 422.4 671.35 424.69Q671.35 424.86 671.34 425.08Q671.32 425.3 671.29 425.5H659.29Q659.4 426.53 659.93 427.37Q660.6 428.54 661.83 429.18Q663.06 429.82 664.65 429.82Q665.96 429.82 667.04 429.38Q668.11 428.93 668.92 428.04L670.4 429.77Q669.4 430.94 667.9 431.55Q666.41 432.17 664.57 432.17ZM659.26 423.57H668.78Q668.7 422.54 668.22 421.7Q667.61 420.58 666.53 419.96Q665.46 419.33 664.04 419.33Q662.64 419.33 661.55 419.96Q660.46 420.58 659.85 421.7Q659.4 422.57 659.26 423.57ZM681.17 432.17Q679.02 432.17 677.34 431.22Q675.65 430.27 674.67 428.57Q673.69 426.86 673.69 424.6Q673.69 422.34 674.67 420.65Q675.65 418.97 677.34 418.02Q679.02 417.07 681.17 417.07Q683.04 417.07 684.55 417.91Q685.58 418.49 686.34 419.44V411.29H689.02V432H686.45V429.66Q685.7 430.72 684.61 431.3Q683.1 432.17 681.17 432.17ZM681.4 429.82Q682.79 429.82 683.92 429.18Q685.05 428.54 685.71 427.35Q686.37 426.17 686.37 424.6Q686.37 423.01 685.71 421.85Q685.05 420.7 683.92 420.05Q682.79 419.41 681.4 419.41Q679.97 419.41 678.86 420.05Q677.74 420.7 677.07 421.85Q676.4 423.01 676.4 424.6Q676.4 426.17 677.07 427.35Q677.74 428.54 678.86 429.18Q679.97 429.82 681.4 429.82ZM701.99 432V412.46H709.61Q712.18 412.46 714 413.27Q715.81 414.08 716.79 415.62Q717.76 417.15 717.76 419.27Q717.76 421.39 716.79 422.92Q715.81 424.44 714 425.26Q712.18 426.08 709.61 426.08H704.79V432ZM704.79 423.65H709.53Q712.21 423.65 713.59 422.51Q714.97 421.37 714.97 419.27Q714.97 417.18 713.59 416.04Q712.21 414.89 709.53 414.89H704.79ZM728.34 432.17Q725.97 432.17 724.17 431.19Q722.37 430.21 721.38 428.51Q720.39 426.81 720.39 424.6Q720.39 422.4 721.35 420.7Q722.31 418.99 724 418.03Q725.69 417.07 727.81 417.07Q729.96 417.07 731.61 418.02Q733.25 418.97 734.19 420.68Q735.12 422.4 735.12 424.69Q735.12 424.86 735.11 425.08Q735.1 425.3 735.07 425.5H723.07Q723.18 426.53 723.71 427.37Q724.38 428.54 725.61 429.18Q726.83 429.82 728.43 429.82Q729.74 429.82 730.81 429.38Q731.89 428.93 732.7 428.04L734.17 429.77Q733.17 430.94 731.68 431.55Q730.18 432.17 728.34 432.17ZM723.04 423.57H732.56Q732.47 422.54 732 421.7Q731.38 420.58 730.31 419.96Q729.23 419.33 727.81 419.33Q726.42 419.33 725.33 419.96Q724.24 420.58 723.62 421.7Q723.18 422.57 723.04 423.57ZM738.84 432V417.21H741.4V419.69Q742.02 418.55 743.22 417.88Q744.67 417.07 746.79 417.07V419.66Q746.62 419.64 746.48 419.64H746.18Q744.03 419.64 742.77 420.92Q741.52 422.2 741.52 424.63V432ZM754.52 432.17Q752.68 432.17 751.02 431.67Q749.36 431.16 748.41 430.44L749.53 428.32Q750.47 428.96 751.87 429.4Q753.27 429.85 754.72 429.85Q756.59 429.85 757.41 429.32Q758.23 428.79 758.23 427.84Q758.23 427.14 757.73 426.75Q757.23 426.36 756.41 426.17Q755.58 425.97 754.58 425.82Q753.57 425.66 752.57 425.43Q751.56 425.19 750.73 424.76Q749.89 424.32 749.39 423.56Q748.88 422.79 748.88 421.51Q748.88 420.17 749.64 419.16Q750.39 418.16 751.77 417.61Q753.15 417.07 755.05 417.07Q756.5 417.07 758 417.42Q759.49 417.77 760.44 418.41L759.29 420.53Q758.29 419.86 757.2 419.61Q756.11 419.36 755.02 419.36Q753.27 419.36 752.4 419.93Q751.53 420.5 751.53 421.39Q751.53 422.15 752.05 422.55Q752.57 422.96 753.39 423.18Q754.21 423.4 755.22 423.56Q756.22 423.71 757.23 423.95Q758.23 424.19 759.06 424.6Q759.88 425.02 760.4 425.78Q760.91 426.53 760.91 427.79Q760.91 429.13 760.13 430.1Q759.35 431.08 757.93 431.62Q756.5 432.17 754.52 432.17ZM770.6 432.17Q768.36 432.17 766.63 431.19Q764.9 430.21 763.9 428.5Q762.89 426.78 762.89 424.6Q762.89 422.4 763.9 420.7Q764.9 418.99 766.63 418.03Q768.36 417.07 770.6 417.07Q772.8 417.07 774.55 418.03Q776.29 418.99 777.28 420.68Q778.27 422.37 778.27 424.6Q778.27 426.81 777.28 428.51Q776.29 430.21 774.55 431.19Q772.8 432.17 770.6 432.17ZM770.6 429.82Q772.02 429.82 773.15 429.18Q774.28 428.54 774.92 427.35Q775.57 426.17 775.57 424.6Q775.57 423.01 774.92 421.85Q774.28 420.7 773.15 420.05Q772.02 419.41 770.6 419.41Q769.17 419.41 768.06 420.05Q766.94 420.7 766.27 421.85Q765.6 423.01 765.6 424.6Q765.6 426.17 766.27 427.35Q766.94 428.54 768.06 429.18Q769.17 429.82 770.6 429.82ZM781.98 432V417.21H784.55V419.44Q785.25 418.49 786.37 417.88Q787.87 417.07 789.88 417.07Q791.7 417.07 793.08 417.77Q794.46 418.46 795.24 419.89Q796.02 421.31 796.02 423.49V432H793.34V423.79Q793.34 421.65 792.3 420.56Q791.25 419.47 789.35 419.47Q787.93 419.47 786.87 420.03Q785.81 420.58 785.24 421.67Q784.66 422.76 784.66 424.38V432ZM810.17 432V430.05Q809.64 430.86 808.69 431.39Q807.35 432.17 805.32 432.17Q803.67 432.17 802.43 431.61Q801.19 431.05 800.52 430.06Q799.85 429.07 799.85 427.81Q799.85 426.61 800.42 425.64Q800.99 424.66 802.29 424.07Q803.59 423.49 805.79 423.49H810.03V422.96Q810.03 421.25 809.04 420.32Q808.05 419.38 806.07 419.38Q804.76 419.38 803.5 419.82Q802.25 420.25 801.38 420.98L800.27 418.97Q801.41 418.05 803.01 417.56Q804.62 417.07 806.38 417.07Q809.42 417.07 811.07 418.55Q812.71 420.03 812.71 423.07V432ZM810.03 425.41H805.9Q803.89 425.41 803.2 426.08Q802.5 426.75 802.5 427.7Q802.5 428.79 803.36 429.45Q804.23 430.1 805.76 430.1Q807.27 430.1 808.4 429.43Q809.53 428.76 810.03 427.48ZM817.68 432V411.29H820.36V432ZM833.37 432V412.46H847.15V414.89H836.16V421.7H845.95V424.1H836.16V432ZM850.7 432V417.21H853.38V432ZM852.04 414.36Q851.26 414.36 850.74 413.86Q850.22 413.36 850.22 412.63Q850.22 411.88 850.74 411.37Q851.26 410.87 852.04 410.87Q852.82 410.87 853.34 411.36Q853.85 411.85 853.85 412.57Q853.85 413.33 853.35 413.84Q852.85 414.36 852.04 414.36ZM858.49 432V417.21H861.05V419.44Q861.75 418.49 862.87 417.88Q864.37 417.07 866.38 417.07Q868.2 417.07 869.58 417.77Q870.96 418.46 871.74 419.89Q872.52 421.31 872.52 423.49V432H869.85V423.79Q869.85 421.65 868.8 420.56Q867.75 419.47 865.85 419.47Q864.43 419.47 863.37 420.03Q862.31 420.58 861.74 421.67Q861.17 422.76 861.17 424.38V432ZM886.68 432V430.05Q886.14 430.86 885.2 431.39Q883.86 432.17 881.82 432.17Q880.17 432.17 878.93 431.61Q877.69 431.05 877.02 430.06Q876.35 429.07 876.35 427.81Q876.35 426.61 876.92 425.64Q877.49 424.66 878.79 424.07Q880.09 423.49 882.29 423.49H886.54V422.96Q886.54 421.25 885.54 420.32Q884.55 419.38 882.57 419.38Q881.26 419.38 880 419.82Q878.75 420.25 877.88 420.98L876.77 418.97Q877.91 418.05 879.52 417.56Q881.12 417.07 882.88 417.07Q885.92 417.07 887.57 418.55Q889.21 420.03 889.21 423.07V432ZM886.54 425.41H882.4Q880.4 425.41 879.7 426.08Q879 426.75 879 427.7Q879 428.79 879.87 429.45Q880.73 430.1 882.27 430.1Q883.77 430.1 884.9 429.43Q886.03 428.76 886.54 427.48ZM894.18 432V417.21H896.75V419.44Q897.45 418.49 898.56 417.88Q900.07 417.07 902.08 417.07Q903.9 417.07 905.28 417.77Q906.66 418.46 907.44 419.89Q908.22 421.31 908.22 423.49V432H905.54V423.79Q905.54 421.65 904.5 420.56Q903.45 419.47 901.55 419.47Q900.13 419.47 899.07 420.03Q898.01 420.58 897.43 421.67Q896.86 422.76 896.86 424.38V432ZM919.64 432.17Q917.38 432.17 915.6 431.19Q913.83 430.21 912.83 428.51Q911.82 426.81 911.82 424.6Q911.82 422.4 912.83 420.7Q913.83 418.99 915.6 418.03Q917.38 417.07 919.64 417.07Q921.65 417.07 923.22 417.86Q924.8 418.66 925.67 420.22L923.63 421.53Q922.9 420.45 921.86 419.93Q920.81 419.41 919.61 419.41Q918.16 419.41 917.01 420.05Q915.87 420.7 915.2 421.85Q914.53 423.01 914.53 424.6Q914.53 426.19 915.2 427.37Q915.87 428.54 917.01 429.18Q918.16 429.82 919.61 429.82Q920.81 429.82 921.86 429.31Q922.9 428.79 923.63 427.7L925.67 428.99Q924.8 430.52 923.22 431.34Q921.65 432.17 919.64 432.17ZM935.71 432.17Q933.34 432.17 931.54 431.19Q929.74 430.21 928.75 428.51Q927.76 426.81 927.76 424.6Q927.76 422.4 928.72 420.7Q929.68 418.99 931.37 418.03Q933.06 417.07 935.18 417.07Q937.33 417.07 938.98 418.02Q940.63 418.97 941.56 420.68Q942.5 422.4 942.5 424.69Q942.5 424.86 942.48 425.08Q942.47 425.3 942.44 425.5H930.44Q930.55 426.53 931.08 427.37Q931.75 428.54 932.98 429.18Q934.21 429.82 935.8 429.82Q937.11 429.82 938.18 429.38Q939.26 428.93 940.07 428.04L941.55 429.77Q940.54 430.94 939.05 431.55Q937.56 432.17 935.71 432.17ZM930.41 423.57H939.93Q939.84 422.54 939.37 421.7Q938.76 420.58 937.68 419.96Q936.61 419.33 935.18 419.33Q933.79 419.33 932.7 419.96Q931.61 420.58 931 421.7Q930.55 422.57 930.41 423.57Z" fill="#F2F1EE" fill-opacity=".78"/>
</svg>